{
  "accessors": [
    {
      "bufferView": 3,
      "componentType": 5126,
      "count": 900,
      "max": [
        4.24081563949585,
        2.463188648223877,
        3.3302252292633057
      ],
      "min": [
        -4.240816116333008,
        -0.008899848908185959,
        -3.3302254676818848
      ],
      "type": "VEC3"
    },
    {
      "bufferView": 3,
      "byteOffset": 10800,
      "componentType": 5126,
      "count": 900,
      "max": [
        0.8006649613380432,
        0.9466513395309448,
        0.9474918842315674
      ],
      "min": [
        -0.8014020323753357,
        -0.9596371650695801,
        -0.9474918842315674
      ],
      "type": "VEC3"
    },
    {
      "bufferView": 4,
      "componentType": 5126,
      "count": 900,
      "max": [
        0.982401967048645,
        -0.13463148474693298,
        0.7007856965065002,
        1.0
      ],
      "min": [
        -0.9824018478393555,
        -0.596487283706665,
        -0.6525306701660156,
        -1.0
      ],
      "type": "VEC4"
    },
    {
      "bufferView": 2,
      "componentType": 5126,
      "count": 900,
      "max": [
        0.5429279804229736,
        0.993676483631134
      ],
      "min": [
        0.25501659512519836,
        0.9822818636894226
      ],
      "type": "VEC2"
    },
    {
      "bufferView": 1,
      "componentType": 5125,
      "count": 4608,
      "type": "SCALAR"
    },
    {
      "bufferView": 3,
      "byteOffset": 21600,
      "componentType": 5126,
      "count": 404,
      "max": [
        4.428028106689453,
        0.1999615728855133,
        3.479005813598633
      ],
      "min": [
        -4.435019016265869,
        -0.16938328742980957,
        -3.5036191940307617
      ],
      "type": "VEC3"
    },
    {
      "bufferView": 3,
      "byteOffset": 26448,
      "componentType": 5126,
      "count": 404,
      "max": [
        0.9091581106185913,
        0.9778544902801514,
        0.8856134414672852
      ],
      "min": [
        -0.9091566801071167,
        -0.9994564652442932,
        -0.8856123089790344
      ],
      "type": "VEC3"
    },
    {
      "bufferView": 4,
      "byteOffset": 14400,
      "componentType": 5126,
      "count": 404,
      "max": [
        0.9862608909606934,
        0.9798822999000549,
        0.9528473615646362,
        1.0
      ],
      "min": [
        -0.9863611459732056,
        -0.9954627156257629,
        -0.9528480172157288,
        -1.0
      ],
      "type": "VEC4"
    },
    {
      "bufferView": 2,
      "byteOffset": 7200,
      "componentType": 5126,
      "count": 404,
      "max": [
        0.7838238477706909,
        0.9990702867507935
      ],
      "min": [
        0.6215202212333679,
        0.9023562073707581
      ],
      "type": "VEC2"
    },
    {
      "bufferView": 1,
      "byteOffset": 18432,
      "componentType": 5125,
      "count": 912,
      "type": "SCALAR"
    },
    {
      "bufferView": 3,
      "byteOffset": 31296,
      "componentType": 5126,
      "count": 9118,
      "max": [
        1.18458890914917,
        2.7377548217773438,
        1.0697543621063232
      ],
      "min": [
        -1.1959196329116821,
        1.2626007795333862,
        -1.0626258850097656
      ],
      "type": "VEC3"
    },
    {
      "bufferView": 3,
      "byteOffset": 140712,
      "componentType": 5126,
      "count": 9118,
      "max": [
        0.9999755620956421,
        0.9999940395355225,
        0.9999697208404541
      ],
      "min": [
        -0.9999815225601196,
        -0.9999814033508301,
        -0.9999734163284302
      ],
      "type": "VEC3"
    },
    {
      "bufferView": 4,
      "byteOffset": 20864,
      "componentType": 5126,
      "count": 9118,
      "max": [
        0.9999114274978638,
        0.999988853931427,
        0.9999640583992004,
        1.0
      ],
      "min": [
        -0.9999925494194031,
        -0.9999947547912598,
        -0.9997628331184387,
        -1.0
      ],
      "type": "VEC4"
    },
    {
      "bufferView": 2,
      "byteOffset": 10432,
      "componentType": 5126,
      "count": 9118,
      "max": [
        0.9972372055053711,
        0.9978525042533875
      ],
      "min": [
        0.0021475553512573242,
        0.0021475553512573242
      ],
      "type": "VEC2"
    },
    {
      "bufferView": 1,
      "byteOffset": 22080,
      "componentType": 5125,
      "count": 46872,
      "type": "SCALAR"
    },
    {
      "bufferView": 3,
      "byteOffset": 250128,
      "componentType": 5126,
      "count": 2803,
      "max": [
        0.8844808340072632,
        2.5128159523010254,
        0.6749978065490723
      ],
      "min": [
        -0.8961436152458191,
        1.9493908882141113,
        -0.676885724067688
      ],
      "type": "VEC3"
    },
    {
      "bufferView": 3,
      "byteOffset": 283764,
      "componentType": 5126,
      "count": 2803,
      "max": [
        0.998083770275116,
        0.9992666840553284,
        0.9998761415481567
      ],
      "min": [
        -0.9982146620750427,
        -0.9963284134864807,
        -0.99974524974823
      ],
      "type": "VEC3"
    },
    {
      "bufferView": 4,
      "byteOffset": 166752,
      "componentType": 5126,
      "count": 2803,
      "max": [
        0.9941820502281189,
        0.9979270100593567,
        0.9998995661735535,
        1.0
      ],
      "min": [
        -0.9914376735687256,
        -0.9995341897010803,
        -0.9999929070472717,
        -1.0
      ],
      "type": "VEC4"
    },
    {
      "bufferView": 2,
      "byteOffset": 83376,
      "componentType": 5126,
      "count": 2803,
      "max": [
        0.9816397428512573,
        0.9602513909339905
      ],
      "min": [
        0.07866454124450684,
        0.0021475553512573242
      ],
      "type": "VEC2"
    },
    {
      "bufferView": 1,
      "byteOffset": 209568,
      "componentType": 5125,
      "count": 14352,
      "type": "SCALAR"
    },
    {
      "bufferView": 5,
      "componentType": 5126,
      "count": 4,
      "max": [
        2.0588290691375732,
        0.0,
        9.81726429927221e-07,
        0.0,
        8.583949124840728e-07,
        2.0588293075561523,
        0.0,
        0.0,
        0.0,
        1.8001840114593506,
        2.0588293075561523,
        0.0,
        0.0,
        0.0,
        5.468469619750977,
        1.0
      ],
      "min": [
        1.0,
        -3.6016898014371024e-14,
        0.0,
        0.0,
        0.0,
        0.9990567564964294,
        -1.8001841306686401,
        0.0,
        -4.908630444333539e-07,
        0.0,
        0.9990568161010742,
        0.0,
        -2.60756996794953e-06,
        -2.8389618396759033,
        0.0,
        1.0
      ],
      "type": "MAT4"
    },
    {
      "bufferView": 0,
      "componentType": 5123,
      "count": 900,
      "type": "VEC4"
    },
    {
      "bufferView": 4,
      "byteOffset": 211600,
      "componentType": 5126,
      "count": 900,
      "max": [
        1.0,
        0.4997490644454956,
        0.0,
        0.0
      ],
      "min": [
        0.5002509951591492,
        0.0,
        0.0,
        0.0
      ],
      "type": "VEC4"
    },
    {
      "bufferView": 0,
      "byteOffset": 7200,
      "componentType": 5123,
      "count": 404,
      "type": "VEC4"
    },
    {
      "bufferView": 4,
      "byteOffset": 226000,
      "componentType": 5126,
      "count": 404,
      "max": [
        1.0,
        0.0,
        0.0,
        0.0
      ],
      "min": [
        1.0,
        0.0,
        0.0,
        0.0
      ],
      "type": "VEC4"
    },
    {
      "bufferView": 0,
      "byteOffset": 10432,
      "componentType": 5123,
      "count": 9118,
      "type": "VEC4"
    },
    {
      "bufferView": 4,
      "byteOffset": 232464,
      "componentType": 5126,
      "count": 9118,
      "max": [
        1.0,
        0.0,
        0.0,
        0.0
      ],
      "min": [
        1.0,
        0.0,
        0.0,
        0.0
      ],
      "type": "VEC4"
    },
    {
      "bufferView": 0,
      "byteOffset": 83376,
      "componentType": 5123,
      "count": 2803,
      "type": "VEC4"
    },
    {
      "bufferView": 4,
      "byteOffset": 378352,
      "componentType": 5126,
      "count": 2803,
      "max": [
        1.0,
        0.0,
        0.0,
        0.0
      ],
      "min": [
        1.0,
        0.0,
        0.0,
        0.0
      ],
      "type": "VEC4"
    },
    {
      "bufferView": 6,
      "componentType": 5126,
      "count": 241,
      "max": [
        5.375
      ],
      "min": [
        0.0
      ],
      "type": "SCALAR"
    },
    {
      "bufferView": 8,
      "componentType": 5126,
      "count": 241,
      "max": [
        0.5175230503082275,
        1.0200378142144473e-07,
        1.8946234092709346e-07,
        0.8779833316802979
      ],
      "min": [
        0.4786912500858307,
        9.361446018374409e-08,
        1.8508072230360995e-07,
        0.8556692600250244
      ],
      "type": "VEC4"
    },
    {
      "bufferView": 6,
      "byteOffset": 964,
      "componentType": 5126,
      "count": 258,
      "max": [
        5.375
      ],
      "min": [
        0.0
      ],
      "type": "SCALAR"
    },
    {
      "bufferView": 7,
      "componentType": 5126,
      "count": 258,
      "max": [
        0.10628093034029007,
        1.5881867761018131e-22,
        2.801215887069702
      ],
      "min": [
        -0.13278159499168396,
        0.0,
        2.607912302017212
      ],
      "type": "VEC3"
    }
  ],
  "animations": [
    {
      "channels": [
        {
          "sampler": 0,
          "target": {
            "node": 21,
            "path": "rotation"
          }
        },
        {
          "sampler": 1,
          "target": {
            "node": 20,
            "path": "translation"
          }
        }
      ],
      "name": "Idle",
      "samplers": [
        {
          "input": 29,
          "interpolation": "LINEAR",
          "output": 30
        },
        {
          "input": 31,
          "interpolation": "LINEAR",
          "output": 32
        }
      ]
    }
  ],
  "asset": {
    "extras": {
      "author": "Duznot (https://sketchfab.com/duz_vr)",
      "license": "CC-BY-4.0 (http://creativecommons.org/licenses/by/4.0/)",
      "source": "https://sketchfab.com/3d-models/balloon-chest-674a396e83a84cc0a841c18722824614",
      "title": "Balloon Chest"
    },
    "generator": "Sketchfab-11.59.0",
    "version": "2.0"
  },
  "bufferViews": [
    {
      "buffer": 0,
      "byteLength": 105800,
      "byteStride": 8,
      "name": "shortBufferViews",
      "target": 34962
    },
    {
      "buffer": 0,
      "byteLength": 266976,
      "byteOffset": 105800,
      "name": "floatBufferViews",
      "target": 34963
    },
    {
      "buffer": 0,
      "byteLength": 105800,
      "byteOffset": 372776,
      "byteStride": 8,
      "name": "floatBufferViews",
      "target": 34962
    },
    {
      "buffer": 0,
      "byteLength": 317400,
      "byteOffset": 478576,
      "byteStride": 12,
      "name": "floatBufferViews",
      "target": 34962
    },
    {
      "buffer": 0,
      "byteLength": 423200,
      "byteOffset": 795976,
      "byteStride": 16,
      "name": "floatBufferViews",
      "target": 34962
    },
    {
      "buffer": 0,
      "byteLength": 256,
      "byteOffset": 1219176,
      "name": "floatBufferViews"
    },
    {
      "buffer": 0,
      "byteLength": 1996,
      "byteOffset": 1219432,
      "name": "floatBufferViews"
    },
    {
      "buffer": 0,
      "byteLength": 3096,
      "byteOffset": 1221428,
      "byteStride": 12,
      "name": "floatBufferViews"
    },
    {
      "buffer": 0,
      "byteLength": 3856,
      "byteOffset": 1224524,
      "byteStride": 16,
      "name": "floatBufferViews"
    }
  ],
  "buffers": [
    {
      "byteLength": 1228380,
      "uri": "scene.bin"
    }
  ],
  "extensionsUsed": [
    "KHR_materials_clearcoat"
  ],
  "images": [
    {
      "uri": "textures/Balloon_baseColor.jpeg"
    },
    {
      "uri": "textures/Balloon_metallicRoughness.png"
    },
    {
      "uri": "textures/Balloon_normal.png"
    },
    {
      "uri": "textures/Balloon_clearcoat.png"
    }
  ],
  "materials": [
    {
      "doubleSided": true,
      "extensions": {
        "KHR_materials_clearcoat": {
          "clearcoatFactor": 1.0,
          "clearcoatRoughnessFactor": 0.0457447412,
          "clearcoatTexture": {
            "index": 3
          }
        }
      },
      "name": "Balloon",
      "normalTexture": {
        "index": 2
      },
      "occlusionTexture": {
        "index": 1
      },
      "pbrMetallicRoughness": {
        "baseColorTexture": {
          "index": 0
        },
        "metallicRoughnessTexture": {
          "index": 1
        }
      }
    }
  ],
  "meshes": [
    {
      "name": "BezierCurve_Balloon_0",
      "primitives": [
        {
          "attributes": {
            "JOINTS_0": 21,
            "NORMAL": 1,
            "POSITION": 0,
            "TANGENT": 2,
            "TEXCOORD_0": 3,
            "WEIGHTS_0": 22
          },
          "indices": 4,
          "material": 0,
          "mode": 4
        }
      ]
    },
    {
      "name": "Cube.005_Balloon_0",
      "primitives": [
        {
          "attributes": {
            "JOINTS_0": 23,
            "NORMAL": 6,
            "POSITION": 5,
            "TANGENT": 7,
            "TEXCOORD_0": 8,
            "WEIGHTS_0": 24
          },
          "indices": 9,
          "material": 0,
          "mode": 4
        }
      ]
    },
    {
      "name": "Cube.007_Balloon_0",
      "primitives": [
        {
          "attributes": {
            "JOINTS_0": 25,
            "NORMAL": 11,
            "POSITION": 10,
            "TANGENT": 12,
            "TEXCOORD_0": 13,
            "WEIGHTS_0": 26
          },
          "indices": 14,
          "material": 0,
          "mode": 4
        }
      ]
    },
    {
      "name": "Cube.002_Balloon_0",
      "primitives": [
        {
          "attributes": {
            "JOINTS_0": 27,
            "NORMAL": 16,
            "POSITION": 15,
            "TANGENT": 17,
            "TEXCOORD_0": 18,
            "WEIGHTS_0": 28
          },
          "indices": 19,
          "material": 0,
          "mode": 4
        }
      ]
    }
  ],
  "nodes": [
    {
      "children": [
        1
      ],
      "matrix": [
        1.0,
        0.0,
        0.0,
        0.0,
        0.0,
        2.220446049250313e-16,
        -1.0,
        0.0,
        0.0,
        1.0,
        2.220446049250313e-16,
        0.0,
        0.0,
        0.0,
        0.0,
        1.0
      ],
      "name": "Sketchfab_model"
    },
    {
      "children": [
        2
      ],
      "matrix": [
        0.009999999776482582,
        0.0,
        0.0,
        0.0,
        0.0,
        0.0,
        0.009999999776482582,
        0.0,
        0.0,
        -0.009999999776482582,
        0.0,
        0.0,
        0.0,
        0.0,
        0.0,
        1.0
      ],
      "name": "balloonchest.fbx"
    },
    {
      "children": [
        3
      ],
      "name": "Object_2"
    },
    {
      "children": [
        4,
        5,
        6,
        7,
        8
      ],
      "name": "RootNode"
    },
    {
      "name": "BezierCurve",
      "rotation": [
        -0.7071068286895752,
        0.0,
        0.0,
        0.7071067094802856
      ],
      "scale": [
        100.0,
        100.0,
        100.0
      ]
    },
    {
      "name": "Cube.005",
      "rotation": [
        -0.7071068286895752,
        0.0,
        0.0,
        0.7071067094802856
      ],
      "scale": [
        100.0,
        100.0,
        100.0
      ]
    },
    {
      "name": "Cube.007",
      "rotation": [
        -0.7071068286895752,
        0.0,
        0.0,
        0.7071067094802856
      ],
      "scale": [
        100.0,
        100.0,
        100.0
      ],
      "translation": [
        0.0,
        165.55055236816406,
        0.0
      ]
    },
    {
      "name": "Cube.002",
      "rotation": [
        -0.7071068286895752,
        0.0,
        0.0,
        0.7071067094802856
      ],
      "scale": [
        117.7821273803711,
        117.7821273803711,
        117.7821273803711
      ],
      "translation": [
        -10.270421981811523,
        138.54824829101563,
        13.712103843688965
      ]
    },
    {
      "children": [
        9
      ],
      "name": "Armature",
      "rotation": [
        -0.7071068286895752,
        0.0,
        0.0,
        0.7071067094802856
      ],
      "scale": [
        48.5713005065918,
        48.5713005065918,
        48.5713005065918
      ]
    },
    {
      "children": [
        10,
        12,
        14,
        16,
        18,
        11,
        13,
        15,
        17
      ],
      "name": "Object_9"
    },
    {
      "children": [
        19,
        20
      ],
      "name": "_rootJoint"
    },
    {
      "matrix": [
        100.00000540878773,
        0.0,
        0.0,
        0.0,
        0.0,
        6.123234326929495e-15,
        -100.00000540878773,
        0.0,
        0.0,
        100.00000540878773,
        6.123234326929495e-15,
        0.0,
        0.0,
        0.0,
        0.0,
        1.0
      ],
      "name": "Object_11"
    },
    {
      "mesh": 0,
      "name": "Object_12",
      "skin": 0
    },
    {
      "matrix": [
        100.00000540878773,
        0.0,
        0.0,
        0.0,
        0.0,
        6.123234326929495e-15,
        -100.00000540878773,
        0.0,
        0.0,
        100.00000540878773,
        6.123234326929495e-15,
        0.0,
        0.0,
        0.0,
        0.0,
        1.0
      ],
      "name": "Object_13"
    },
    {
      "mesh": 1,
      "name": "Object_14",
      "skin": 0
    },
    {
      "matrix": [
        100.00000540878773,
        0.0,
        0.0,
        0.0,
        0.0,
        6.123234326929495e-15,
        -100.00000540878773,
        0.0,
        0.0,
        100.00000540878773,
        6.123234326929495e-15,
        0.0,
        0.0,
        165.55055088335848,
        0.0,
        1.0
      ],
      "name": "Object_15"
    },
    {
      "mesh": 2,
      "name": "Object_16",
      "skin": 0
    },
    {
      "matrix": [
        117.78212418739713,
        0.0,
        0.0,
        0.0,
        0.0,
        7.212075069143597e-15,
        -117.78212418739713,
        0.0,
        0.0,
        117.78212418739713,
        7.212075069143597e-15,
        0.0,
        -10.270422269493906,
        138.54825478645125,
        13.712103486710703,
        1.0
      ],
      "name": "Object_17"
    },
    {
      "mesh": 3,
      "name": "Object_18",
      "skin": 0
    },
    {
      "name": "Ground_00",
      "rotation": [
        0.7071068286895752,
        0.0,
        0.0,
        0.7071067094802856
      ]
    },
    {
      "children": [
        21
      ],
      "name": "Chest_01",
      "rotation": [
        0.7071068286895752,
        8.429370268459024e-08,
        8.429368847373553e-08,
        0.7071067094802856
      ],
      "scale": [
        1.0,
        0.9999999403953552,
        0.9999999403953552
      ],
      "translation": [
        0.0,
        -5.293955920339377e-23,
        2.607912302017212
      ]
    },
    {
      "name": "Lid_02",
      "rotation": [
        0.5175230503082275,
        1.0200378142144473e-07,
        1.8508070809275523e-07,
        0.8556692600250244
      ],
      "translation": [
        3.8510728472829214e-07,
        2.5187735557556152,
        -1.6152575016021729
      ]
    }
  ],
  "samplers": [
    {
      "magFilter": 9729,
      "minFilter": 9987,
      "wrapS": 10497,
      "wrapT": 10497
    }
  ],
  "scene": 0,
  "scenes": [
    {
      "name": "Sketchfab_Scene",
      "nodes": [
        0
      ]
    }
  ],
  "skins": [
    {
      "inverseBindMatrices": 20,
      "joints": [
        10,
        19,
        20,
        21
      ],
      "skeleton": 10
    }
  ],
  "textures": [
    {
      "sampler": 0,
      "source": 0
    },
    {
      "sampler": 0,
      "source": 1
    },
    {
      "sampler": 0,
      "source": 2
    },
    {
      "sampler": 0,
      "source": 3
    }
  ]
}
